<svg xmlns="http://www.w3.org/2000/svg" xmlns:xlink="http://www.w3.org/1999/xlink" width="60" zoomAndPan="magnify" viewBox="0 0 45 44.999999" height="60" preserveAspectRatio="xMidYMid meet" version="1.0"><defs><clipPath id="dd827e95e5"><path d="M 2.339844 13.859375 L 4 13.859375 L 4 17 L 2.339844 17 Z M 2.339844 13.859375 " clip-rule="nonzero"/></clipPath><clipPath id="6c70e7481e"><path d="M 2.339844 25 L 7 25 L 7 31.109375 L 2.339844 31.109375 Z M 2.339844 25 " clip-rule="nonzero"/></clipPath><clipPath id="86927e3552"><path d="M 6 13.859375 L 9 13.859375 L 9 17 L 6 17 Z M 6 13.859375 " clip-rule="nonzero"/></clipPath><clipPath id="7ff34977b5"><path d="M 7 25 L 12 25 L 12 31.109375 L 7 31.109375 Z M 7 25 " clip-rule="nonzero"/></clipPath><clipPath id="76e1bb4a99"><path d="M 12 25 L 18 25 L 18 31.109375 L 12 31.109375 Z M 12 25 " clip-rule="nonzero"/></clipPath><clipPath id="8328b373aa"><path d="M 18 13.859375 L 20 13.859375 L 20 15 L 18 15 Z M 18 13.859375 " clip-rule="nonzero"/></clipPath><clipPath id="de63b277ea"><path d="M 22 13.859375 L 25 13.859375 L 25 17 L 22 17 Z M 22 13.859375 " clip-rule="nonzero"/></clipPath><clipPath id="1daabb72d1"><path d="M 37 18 L 42.839844 18 L 42.839844 24 L 37 24 Z M 37 18 " clip-rule="nonzero"/></clipPath><clipPath id="25e88b44eb"><path d="M 11.003906 17.972656 L 17.003906 17.972656 L 17.003906 23.972656 L 11.003906 23.972656 Z M 11.003906 17.972656 " clip-rule="nonzero"/></clipPath></defs><g clip-path="url(#dd827e95e5)"><path fill="#026e44" d="M 3.644531 13.945312 L 3.035156 13.945312 L 2.34375 14.222656 L 2.414062 14.632812 L 3.058594 14.460938 L 3.046875 14.539062 L 3.039062 14.613281 L 3.039062 14.6875 L 3.035156 14.761719 L 3.035156 16.710938 L 3.644531 16.710938 Z M 3.644531 13.945312 " fill-opacity="1" fill-rule="nonzero"/></g><path fill="#026e44" d="M 4.578125 18.167969 L 3.0625 18.167969 L 3.0625 23.792969 L 4.578125 23.792969 Z M 4.578125 18.167969 " fill-opacity="1" fill-rule="nonzero"/><path fill="#026e44" d="M 5.605469 14.949219 L 5.582031 14.675781 L 5.542969 14.566406 L 5.507812 14.480469 L 5.375 14.34375 L 5.175781 14.269531 L 5.15625 14.269531 L 5.15625 14.949219 L 5.144531 15.132812 L 5.101562 15.25 L 5.023438 15.308594 L 4.902344 15.324219 L 4.777344 15.308594 L 4.695312 15.25 L 4.65625 15.132812 L 4.640625 14.949219 L 4.65625 14.757812 L 4.695312 14.640625 L 4.777344 14.582031 L 4.902344 14.566406 L 5.023438 14.582031 L 5.101562 14.640625 L 5.144531 14.757812 L 5.15625 14.949219 L 5.15625 14.269531 L 4.902344 14.246094 L 4.625 14.269531 L 4.425781 14.34375 L 4.214844 14.675781 L 4.191406 14.949219 L 4.214844 15.214844 L 4.289062 15.410156 L 4.425781 15.542969 L 4.625 15.617188 L 4.902344 15.640625 L 5.175781 15.617188 L 5.375 15.542969 L 5.507812 15.414062 L 5.542969 15.324219 L 5.582031 15.214844 Z M 5.605469 14.949219 " fill-opacity="1" fill-rule="nonzero"/><g clip-path="url(#6c70e7481e)"><path fill="#026e44" d="M 6.976562 30.878906 L 6.851562 29.761719 L 6.632812 29.785156 L 6.410156 29.800781 L 6.183594 29.8125 L 5.945312 29.820312 L 5.683594 29.824219 L 5.398438 29.828125 L 5.078125 29.828125 L 4.871094 29.816406 L 4.558594 29.691406 L 4.359375 29.414062 L 4.292969 29.199219 L 4.253906 28.933594 L 4.230469 28.609375 L 4.222656 28.222656 L 4.230469 27.835938 L 4.253906 27.511719 L 4.292969 27.246094 L 4.359375 27.035156 L 4.558594 26.753906 L 4.871094 26.632812 L 5.078125 26.617188 L 5.421875 26.617188 L 5.71875 26.621094 L 5.980469 26.625 L 6.226562 26.628906 L 6.738281 26.640625 L 6.851562 25.515625 L 6.628906 25.460938 L 6.414062 25.414062 L 6.191406 25.375 L 5.957031 25.347656 L 5.703125 25.328125 L 5.410156 25.316406 L 5.078125 25.3125 L 4.785156 25.320312 L 4.515625 25.34375 L 4.269531 25.378906 L 4.039062 25.433594 L 3.828125 25.503906 L 3.636719 25.589844 L 3.308594 25.820312 L 3.046875 26.125 L 2.941406 26.308594 L 2.851562 26.515625 L 2.777344 26.742188 L 2.71875 26.988281 L 2.671875 27.261719 L 2.640625 27.558594 L 2.621094 27.875 L 2.617188 28.222656 L 2.621094 28.566406 L 2.640625 28.886719 L 2.671875 29.179688 L 2.71875 29.453125 L 2.777344 29.703125 L 2.851562 29.925781 L 2.941406 30.132812 L 3.046875 30.316406 L 3.171875 30.480469 L 3.464844 30.746094 L 3.828125 30.941406 L 4.039062 31.007812 L 4.269531 31.0625 L 4.515625 31.101562 L 4.785156 31.121094 L 5.074219 31.128906 L 5.417969 31.125 L 5.726562 31.113281 L 6.007812 31.089844 L 6.265625 31.054688 L 6.507812 31.007812 L 6.742188 30.949219 L 6.972656 30.878906 Z M 6.976562 30.878906 " fill-opacity="1" fill-rule="nonzero"/></g><g clip-path="url(#86927e3552)"><path fill="#026e44" d="M 8.832031 15.964844 L 8.800781 15.691406 L 8.703125 15.464844 L 8.523438 15.289062 L 8.246094 15.152344 L 7.71875 14.972656 L 7.585938 14.921875 L 7.5 14.863281 L 7.449219 14.777344 L 7.433594 14.660156 L 7.453125 14.519531 L 7.519531 14.445312 L 7.644531 14.410156 L 7.832031 14.40625 L 8.058594 14.40625 L 8.289062 14.410156 L 8.507812 14.410156 L 8.699219 14.417969 L 8.738281 14 L 8.503906 13.945312 L 8.269531 13.914062 L 8.042969 13.894531 L 7.828125 13.890625 L 7.507812 13.902344 L 7.25 13.949219 L 7.058594 14.035156 L 6.847656 14.378906 L 6.820312 14.65625 L 6.851562 14.933594 L 6.949219 15.160156 L 7.128906 15.335938 L 7.394531 15.46875 L 7.953125 15.664062 L 8.070312 15.710938 L 8.152344 15.765625 L 8.199219 15.847656 L 8.214844 15.96875 L 8.195312 16.105469 L 8.128906 16.1875 L 8.003906 16.226562 L 7.804688 16.238281 L 7.660156 16.234375 L 6.890625 16.21875 L 6.851562 16.660156 L 7.15625 16.714844 L 7.421875 16.746094 L 7.640625 16.757812 L 7.804688 16.761719 L 8.140625 16.746094 L 8.40625 16.695312 L 8.601562 16.601562 L 8.730469 16.453125 L 8.808594 16.242188 Z M 8.832031 15.964844 " fill-opacity="1" fill-rule="nonzero"/></g><path fill="#026e44" d="M 10.542969 18.167969 L 9.125 18.167969 L 9.125 20.890625 L 9.132812 21.140625 L 9.148438 21.386719 L 9.167969 21.628906 L 9.191406 21.878906 L 9.125 21.878906 L 9.023438 21.625 L 8.917969 21.378906 L 8.8125 21.148438 L 8.699219 20.941406 L 7.414062 18.617188 L 7.296875 18.425781 L 7.023438 18.199219 L 6.820312 18.167969 L 6.101562 18.167969 L 5.871094 18.203125 L 5.699219 18.308594 L 5.597656 18.476562 L 5.5625 18.707031 L 5.5625 23.792969 L 6.988281 23.792969 L 6.988281 20.972656 L 6.984375 20.738281 L 6.972656 20.496094 L 6.953125 20.253906 L 6.925781 20.011719 L 6.988281 20.011719 L 7.066406 20.25 L 7.15625 20.488281 L 7.253906 20.722656 L 7.355469 20.929688 L 8.691406 23.34375 L 8.804688 23.539062 L 9.082031 23.761719 L 9.289062 23.792969 L 10.011719 23.792969 L 10.242188 23.757812 L 10.410156 23.65625 L 10.507812 23.484375 L 10.542969 23.253906 Z M 10.542969 18.167969 " fill-opacity="1" fill-rule="nonzero"/><path fill="#026e44" d="M 11.105469 14.734375 L 10.515625 14.734375 L 10.515625 16.101562 L 10.371094 16.175781 L 10.242188 16.226562 L 10.128906 16.257812 L 10.023438 16.265625 L 9.921875 16.253906 L 9.855469 16.214844 L 9.820312 16.144531 L 9.808594 16.035156 L 9.808594 14.734375 L 9.21875 14.734375 L 9.21875 16.214844 L 9.25 16.453125 L 9.355469 16.625 L 9.53125 16.730469 L 9.773438 16.765625 L 9.984375 16.746094 L 10.1875 16.683594 L 10.386719 16.582031 L 10.59375 16.4375 L 10.636719 16.710938 L 11.105469 16.710938 Z M 11.105469 14.734375 " fill-opacity="1" fill-rule="nonzero"/><g clip-path="url(#7ff34977b5)"><path fill="#026e44" d="M 11.75 30.878906 L 11.628906 29.761719 L 11.40625 29.785156 L 11.1875 29.800781 L 10.957031 29.8125 L 10.71875 29.820312 L 10.457031 29.824219 L 10.171875 29.828125 L 9.851562 29.828125 L 9.644531 29.816406 L 9.332031 29.691406 L 9.132812 29.410156 L 9.070312 29.199219 L 9.027344 28.933594 L 9.003906 28.609375 L 8.996094 28.222656 L 9.003906 27.835938 L 9.027344 27.511719 L 9.070312 27.246094 L 9.132812 27.03125 L 9.332031 26.753906 L 9.644531 26.628906 L 9.851562 26.617188 L 10.195312 26.617188 L 10.492188 26.621094 L 10.753906 26.621094 L 11.003906 26.628906 L 11.511719 26.640625 L 11.628906 25.515625 L 11.402344 25.460938 L 11.1875 25.410156 L 10.964844 25.375 L 10.734375 25.347656 L 10.476562 25.328125 L 10.183594 25.316406 L 9.851562 25.3125 L 9.5625 25.320312 L 9.292969 25.339844 L 9.042969 25.378906 L 8.8125 25.433594 L 8.605469 25.503906 L 8.410156 25.589844 L 8.082031 25.820312 L 7.824219 26.125 L 7.71875 26.308594 L 7.628906 26.515625 L 7.550781 26.742188 L 7.492188 26.988281 L 7.445312 27.261719 L 7.414062 27.554688 L 7.394531 27.875 L 7.390625 28.21875 L 7.394531 28.566406 L 7.414062 28.886719 L 7.445312 29.179688 L 7.492188 29.453125 L 7.550781 29.699219 L 7.628906 29.925781 L 7.71875 30.132812 L 7.824219 30.316406 L 7.945312 30.480469 L 8.238281 30.746094 L 8.601562 30.9375 L 8.8125 31.007812 L 9.042969 31.0625 L 9.292969 31.101562 L 9.5625 31.121094 L 9.851562 31.128906 L 10.191406 31.125 L 10.5 31.113281 L 10.78125 31.089844 L 11.039062 31.054688 L 11.28125 31.007812 L 11.515625 30.949219 L 11.75 30.875 Z M 11.75 30.878906 " fill-opacity="1" fill-rule="nonzero"/></g><path fill="#026e44" d="M 14.644531 15.230469 L 14.609375 14.992188 L 14.503906 14.820312 L 14.332031 14.714844 L 14.09375 14.679688 L 13.902344 14.699219 L 13.722656 14.757812 L 13.546875 14.859375 L 13.371094 15 L 13.300781 14.859375 L 13.191406 14.761719 L 13.042969 14.699219 L 12.863281 14.679688 L 12.660156 14.699219 L 12.472656 14.765625 L 12.292969 14.875 L 12.109375 15.023438 L 12.070312 14.734375 L 11.59375 14.734375 L 11.59375 16.710938 L 12.183594 16.710938 L 12.183594 15.351562 L 12.328125 15.269531 L 12.4375 15.21875 L 12.53125 15.1875 L 12.621094 15.179688 L 12.71875 15.191406 L 12.785156 15.230469 L 12.824219 15.300781 L 12.835938 15.414062 L 12.835938 16.710938 L 13.402344 16.710938 L 13.402344 15.355469 L 13.546875 15.273438 L 13.65625 15.21875 L 13.75 15.191406 L 13.847656 15.179688 L 13.945312 15.195312 L 14.011719 15.234375 L 14.042969 15.304688 L 14.054688 15.414062 L 14.054688 16.710938 L 14.644531 16.710938 Z M 14.644531 15.230469 " fill-opacity="1" fill-rule="nonzero"/><g clip-path="url(#76e1bb4a99)"><path fill="#026e44" d="M 17.398438 25.410156 L 15.980469 25.410156 L 15.980469 28.132812 L 15.988281 28.382812 L 16.003906 28.625 L 16.023438 28.871094 L 16.042969 29.121094 L 15.980469 29.121094 L 15.878906 28.867188 L 15.773438 28.621094 L 15.664062 28.390625 L 15.554688 28.183594 L 14.269531 25.859375 L 14.152344 25.667969 L 13.878906 25.441406 L 13.675781 25.410156 L 12.957031 25.410156 L 12.722656 25.445312 L 12.554688 25.550781 L 12.453125 25.71875 L 12.417969 25.949219 L 12.417969 31.035156 L 13.84375 31.035156 L 13.84375 28.214844 L 13.839844 27.980469 L 13.828125 27.738281 L 13.808594 27.492188 L 13.78125 27.253906 L 13.84375 27.253906 L 13.921875 27.492188 L 14.007812 27.730469 L 14.109375 27.964844 L 14.210938 28.175781 L 15.546875 30.585938 L 15.660156 30.78125 L 15.9375 31.003906 L 16.140625 31.035156 L 16.867188 31.035156 L 17.097656 31 L 17.261719 30.898438 L 17.363281 30.726562 L 17.398438 30.496094 Z M 17.398438 25.410156 " fill-opacity="1" fill-rule="nonzero"/></g><path fill="#026e44" d="M 18.164062 15.230469 L 18.128906 14.992188 L 18.023438 14.820312 L 17.851562 14.714844 L 17.617188 14.679688 L 17.425781 14.699219 L 17.246094 14.757812 L 17.070312 14.859375 L 16.894531 15 L 16.820312 14.859375 L 16.710938 14.761719 L 16.566406 14.699219 L 16.382812 14.679688 L 16.183594 14.699219 L 15.996094 14.765625 L 15.8125 14.875 L 15.628906 15.023438 L 15.589844 14.734375 L 15.117188 14.734375 L 15.117188 16.710938 L 15.707031 16.710938 L 15.707031 15.351562 L 15.847656 15.269531 L 15.957031 15.21875 L 16.050781 15.1875 L 16.144531 15.179688 L 16.238281 15.191406 L 16.304688 15.230469 L 16.34375 15.300781 L 16.355469 15.414062 L 16.355469 16.710938 L 16.925781 16.710938 L 16.925781 15.355469 L 17.066406 15.273438 L 17.179688 15.21875 L 17.273438 15.191406 L 17.367188 15.179688 L 17.464844 15.195312 L 17.53125 15.234375 L 17.566406 15.304688 L 17.574219 15.414062 L 17.574219 16.710938 L 18.164062 16.710938 Z M 18.164062 15.230469 " fill-opacity="1" fill-rule="nonzero"/><path fill="#026e44" d="M 19.246094 14.734375 L 18.65625 14.734375 L 18.65625 16.710938 L 19.246094 16.710938 Z M 19.246094 14.734375 " fill-opacity="1" fill-rule="nonzero"/><g clip-path="url(#8328b373aa)"><path fill="#026e44" d="M 19.253906 14.035156 L 19.242188 13.960938 L 19.210938 13.90625 L 19.15625 13.871094 L 19.082031 13.859375 L 18.816406 13.859375 L 18.738281 13.871094 L 18.6875 13.90625 L 18.652344 13.960938 L 18.644531 14.035156 L 18.644531 14.25 L 18.652344 14.324219 L 18.6875 14.378906 L 18.738281 14.410156 L 18.816406 14.421875 L 19.082031 14.421875 L 19.15625 14.410156 L 19.210938 14.378906 L 19.242188 14.324219 L 19.253906 14.25 Z M 19.253906 14.035156 " fill-opacity="1" fill-rule="nonzero"/></g><path fill="#026e44" d="M 21.066406 14.734375 L 20.515625 14.734375 L 20.515625 14.179688 L 19.925781 14.179688 L 19.925781 14.734375 L 19.578125 14.753906 L 19.578125 15.132812 L 19.925781 15.132812 L 19.925781 16.191406 L 19.964844 16.433594 L 20.074219 16.609375 L 20.253906 16.722656 L 20.492188 16.761719 L 20.617188 16.753906 L 20.769531 16.738281 L 20.917969 16.714844 L 21.050781 16.679688 L 20.984375 16.265625 L 20.734375 16.265625 L 20.632812 16.257812 L 20.5625 16.222656 L 20.527344 16.160156 L 20.515625 16.066406 L 20.515625 15.132812 L 21.066406 15.132812 Z M 21.066406 14.734375 " fill-opacity="1" fill-rule="nonzero"/><path fill="#026e44" d="M 21.957031 18.167969 L 20.378906 18.167969 L 19.523438 22.007812 L 19.460938 22.324219 L 19.429688 22.488281 L 19.410156 22.644531 L 19.203125 22.644531 L 19.152344 22.324219 L 19.089844 22.007812 L 18.226562 18.167969 L 16.652344 18.167969 L 18.097656 23.375 L 18.285156 23.679688 L 18.625 23.792969 L 19.988281 23.792969 L 20.171875 23.761719 L 20.328125 23.679688 L 20.445312 23.546875 L 20.515625 23.375 Z M 21.957031 18.167969 " fill-opacity="1" fill-rule="nonzero"/><g clip-path="url(#de63b277ea)"><path fill="#026e44" d="M 24.160156 13.90625 L 23.566406 13.90625 L 23.566406 14.546875 L 23.570312 14.652344 L 23.585938 14.855469 L 23.566406 14.84375 L 23.566406 16.109375 L 23.449219 16.179688 L 23.347656 16.230469 L 23.242188 16.261719 L 23.121094 16.269531 L 22.972656 16.25 L 22.871094 16.164062 L 22.8125 15.992188 L 22.796875 15.707031 L 22.792969 15.703125 L 22.8125 15.402344 L 22.875 15.222656 L 22.980469 15.140625 L 23.144531 15.121094 L 23.257812 15.125 L 23.359375 15.144531 L 23.460938 15.167969 L 23.5625 15.195312 L 23.5625 14.84375 L 23.4375 14.773438 L 23.28125 14.71875 L 23.113281 14.6875 L 22.941406 14.679688 L 22.714844 14.699219 L 22.375 14.894531 L 22.269531 15.089844 L 22.207031 15.355469 L 22.183594 15.703125 L 22.183594 15.707031 L 22.199219 16.019531 L 22.253906 16.277344 L 22.34375 16.484375 L 22.65625 16.730469 L 22.886719 16.761719 L 23.125 16.734375 L 23.332031 16.660156 L 23.503906 16.554688 L 23.640625 16.421875 L 23.6875 16.710938 L 24.15625 16.710938 L 24.15625 13.90625 Z M 24.160156 13.90625 " fill-opacity="1" fill-rule="nonzero"/></g><path fill="#026e44" d="M 26.507812 15.367188 L 26.472656 15.125 L 26.472656 15.121094 L 26.46875 15.113281 L 26.371094 14.929688 L 26.191406 14.792969 L 25.925781 14.707031 L 25.925781 15.359375 L 25.921875 15.441406 L 25.894531 15.503906 L 25.839844 15.550781 L 25.742188 15.566406 L 25.179688 15.566406 L 25.210938 15.335938 L 25.28125 15.199219 L 25.402344 15.128906 L 25.589844 15.113281 L 25.75 15.125 L 25.855469 15.167969 L 25.910156 15.242188 L 25.925781 15.359375 L 25.925781 14.707031 L 25.570312 14.679688 L 25.289062 14.695312 L 25.054688 14.75 L 24.871094 14.84375 L 24.636719 15.175781 L 24.582031 15.421875 L 24.5625 15.726562 L 24.582031 16.011719 L 24.636719 16.25 L 24.734375 16.4375 L 25.0625 16.683594 L 25.300781 16.742188 L 25.59375 16.761719 L 25.816406 16.753906 L 26.042969 16.726562 L 26.261719 16.683594 L 26.457031 16.609375 L 26.40625 16.285156 L 26.402344 16.242188 L 26.199219 16.261719 L 26 16.273438 L 25.816406 16.28125 L 25.664062 16.285156 L 25.46875 16.269531 L 25.328125 16.214844 L 25.238281 16.101562 L 25.195312 15.921875 L 25.90625 15.921875 L 26.183594 15.886719 L 26.371094 15.78125 L 26.476562 15.605469 L 26.480469 15.566406 Z M 26.507812 15.367188 " fill-opacity="1" fill-rule="nonzero"/><path fill="#026e44" d="M 27.15625 23.792969 L 26.765625 22.457031 L 26.441406 21.347656 L 25.84375 19.320312 L 25.625 18.570312 L 25.433594 18.277344 L 25.105469 18.167969 L 24.972656 18.167969 L 24.972656 21.347656 L 23.816406 21.347656 L 24.175781 19.90625 L 24.234375 19.613281 L 24.289062 19.316406 L 24.507812 19.316406 L 24.550781 19.613281 L 24.613281 19.90625 L 24.972656 21.347656 L 24.972656 18.167969 L 23.6875 18.167969 L 23.511719 18.199219 L 23.359375 18.277344 L 23.242188 18.402344 L 23.171875 18.570312 L 21.632812 23.792969 L 23.195312 23.792969 L 23.53125 22.457031 L 25.257812 22.457031 L 25.59375 23.792969 Z M 27.15625 23.792969 " fill-opacity="1" fill-rule="nonzero"/><path fill="#026e44" d="M 30.492188 24.828125 L 30.472656 24.597656 L 30.277344 24.324219 L 29.847656 24.246094 L 29.539062 24.261719 L 29.171875 24.296875 L 29.03125 24.835938 L 29.324219 24.835938 L 29.492188 24.847656 L 29.566406 24.878906 L 29.578125 24.949219 L 29.507812 25.171875 L 29.355469 25.308594 L 29.136719 25.375 L 28.875 25.390625 L 28.707031 25.976562 L 28.988281 26 L 29.257812 25.992188 L 29.507812 25.949219 L 29.738281 25.882812 L 29.941406 25.78125 L 30.121094 25.648438 L 30.269531 25.488281 L 30.382812 25.296875 L 30.457031 25.078125 Z M 30.492188 24.828125 " fill-opacity="1" fill-rule="nonzero"/><path fill="#026e44" d="M 31.730469 23.636719 L 31.613281 22.585938 L 31.605469 22.523438 L 31.386719 22.542969 L 31.164062 22.558594 L 30.9375 22.570312 L 30.695312 22.578125 L 30.4375 22.582031 L 30.074219 22.585938 L 29.832031 22.585938 L 29.625 22.574219 L 29.3125 22.453125 L 29.113281 22.171875 L 29.046875 21.957031 L 29.007812 21.691406 L 28.980469 21.367188 L 28.976562 20.980469 L 28.980469 20.59375 L 29.007812 20.269531 L 29.046875 20.003906 L 29.113281 19.792969 L 29.3125 19.511719 L 29.625 19.390625 L 29.832031 19.375 L 30.734375 19.382812 L 31.492188 19.398438 L 31.492188 19.382812 L 31.496094 19.375 L 31.605469 18.273438 L 31.382812 18.21875 L 31.164062 18.171875 L 30.945312 18.132812 L 30.710938 18.105469 L 30.457031 18.085938 L 30.164062 18.074219 L 29.832031 18.070312 L 29.539062 18.078125 L 29.269531 18.101562 L 29.023438 18.136719 L 28.792969 18.191406 L 28.582031 18.261719 L 28.390625 18.347656 L 28.0625 18.578125 L 27.800781 18.886719 L 27.695312 19.070312 L 27.605469 19.273438 L 27.53125 19.5 L 27.472656 19.75 L 27.425781 20.019531 L 27.394531 20.316406 L 27.375 20.636719 L 27.371094 20.980469 L 27.375 21.324219 L 27.394531 21.644531 L 27.425781 21.941406 L 27.472656 22.210938 L 27.53125 22.460938 L 27.605469 22.6875 L 27.695312 22.890625 L 27.800781 23.078125 L 27.925781 23.238281 L 28.21875 23.507812 L 28.582031 23.699219 L 28.792969 23.769531 L 29.023438 23.824219 L 29.269531 23.859375 L 29.539062 23.882812 L 29.828125 23.890625 L 30.171875 23.886719 L 30.480469 23.871094 L 30.761719 23.847656 L 31.019531 23.816406 L 31.257812 23.769531 L 31.496094 23.710938 L 31.726562 23.636719 Z M 31.730469 23.636719 " fill-opacity="1" fill-rule="nonzero"/><path fill="#026e44" d="M 36.097656 16.75 L 36.066406 16.421875 L 36.0625 16.417969 L 35.4375 16.417969 L 35.433594 16.582031 L 35.433594 16.585938 L 35.398438 16.695312 L 35.320312 16.75 L 35.167969 16.742188 L 34.914062 16.679688 L 34.40625 16.5 L 34.132812 16.421875 L 33.824219 16.375 L 33.644531 16.390625 L 33.476562 16.457031 L 33.332031 16.582031 L 33.214844 16.761719 L 33.140625 16.996094 L 33.113281 17.292969 L 33.144531 17.648438 L 33.765625 17.648438 L 33.769531 17.476562 L 33.804688 17.363281 L 33.882812 17.3125 L 34.035156 17.3125 L 34.261719 17.375 L 34.773438 17.558594 L 35.0625 17.640625 L 35.378906 17.6875 L 35.578125 17.671875 L 35.753906 17.597656 L 35.898438 17.464844 L 35.992188 17.308594 L 36.011719 17.28125 L 36.078125 17.042969 L 36.097656 16.761719 Z M 36.097656 16.75 " fill-opacity="1" fill-rule="nonzero"/><path fill="#026e44" d="M 37.390625 23.792969 L 37 22.457031 L 36.675781 21.347656 L 36.078125 19.320312 L 35.859375 18.570312 L 35.667969 18.277344 L 35.339844 18.167969 L 35.207031 18.167969 L 35.207031 21.347656 L 34.050781 21.347656 L 34.410156 19.90625 L 34.46875 19.609375 L 34.523438 19.316406 L 34.742188 19.316406 L 34.789062 19.609375 L 34.847656 19.90625 L 35.207031 21.347656 L 35.207031 18.167969 L 33.921875 18.167969 L 33.746094 18.199219 L 33.59375 18.277344 L 33.476562 18.402344 L 33.40625 18.570312 L 31.867188 23.792969 L 33.433594 23.792969 L 33.765625 22.457031 L 35.492188 22.457031 L 35.828125 23.792969 Z M 37.390625 23.792969 " fill-opacity="1" fill-rule="nonzero"/><g clip-path="url(#1daabb72d1)"><path fill="#026e44" d="M 42.648438 20.980469 L 42.644531 20.632812 L 42.625 20.3125 L 42.597656 20.015625 L 42.554688 19.746094 L 42.5 19.5 L 42.433594 19.273438 L 42.414062 19.230469 L 42.351562 19.074219 L 42.253906 18.894531 L 42.015625 18.59375 L 41.71875 18.367188 L 41.351562 18.207031 L 41.140625 18.152344 L 41.035156 18.128906 L 41.035156 20.980469 L 41.027344 21.40625 L 41.003906 21.761719 L 40.957031 22.050781 L 40.890625 22.28125 L 40.675781 22.589844 L 40.34375 22.71875 L 40.121094 22.734375 L 39.902344 22.71875 L 39.566406 22.589844 L 39.355469 22.28125 L 39.285156 22.050781 L 39.242188 21.761719 L 39.21875 21.40625 L 39.210938 20.980469 L 39.21875 20.558594 L 39.242188 20.203125 L 39.285156 19.914062 L 39.355469 19.683594 L 39.566406 19.375 L 39.902344 19.246094 L 40.121094 19.230469 L 40.34375 19.246094 L 40.675781 19.375 L 40.890625 19.683594 L 40.957031 19.914062 L 41.003906 20.203125 L 41.027344 20.558594 L 41.035156 20.980469 L 41.035156 18.128906 L 40.914062 18.109375 L 40.671875 18.078125 L 40.40625 18.0625 L 40.121094 18.054688 L 39.839844 18.0625 L 39.574219 18.078125 L 39.332031 18.109375 L 39.105469 18.148438 L 38.894531 18.207031 L 38.703125 18.277344 L 38.371094 18.46875 L 38.105469 18.734375 L 37.898438 19.074219 L 37.820312 19.273438 L 37.75 19.5 L 37.695312 19.746094 L 37.65625 20.015625 L 37.628906 20.3125 L 37.609375 20.632812 L 37.605469 20.980469 L 37.609375 21.328125 L 37.628906 21.648438 L 37.65625 21.945312 L 37.695312 22.214844 L 37.75 22.460938 L 37.820312 22.6875 L 37.898438 22.886719 L 37.996094 23.070312 L 38.230469 23.371094 L 38.53125 23.59375 L 38.894531 23.753906 L 39.105469 23.8125 L 39.332031 23.855469 L 39.574219 23.882812 L 39.839844 23.898438 L 40.121094 23.90625 L 40.40625 23.898438 L 40.671875 23.882812 L 40.914062 23.855469 L 41.140625 23.8125 L 41.351562 23.753906 L 41.542969 23.683594 L 41.875 23.492188 L 42.144531 23.230469 L 42.351562 22.886719 L 42.414062 22.730469 L 42.433594 22.6875 L 42.5 22.460938 L 42.554688 22.214844 L 42.597656 21.945312 L 42.625 21.648438 L 42.644531 21.328125 Z M 42.648438 20.980469 " fill-opacity="1" fill-rule="nonzero"/></g><g clip-path="url(#25e88b44eb)"><path fill="#f6cc45" d="M 14.058594 17.972656 L 13.941406 17.972656 L 13.894531 18.027344 L 13.710938 18.46875 L 13.621094 18.761719 L 13.527344 19.050781 L 13.417969 19.296875 L 13.367188 19.359375 L 13.304688 19.378906 L 13.238281 19.371094 L 13.164062 19.347656 L 12.886719 19.230469 L 12.328125 18.949219 L 12.046875 18.828125 L 11.984375 18.820312 L 11.917969 18.84375 L 11.867188 18.890625 L 11.835938 18.945312 L 11.890625 19.128906 L 12.042969 19.453125 L 12.214844 19.792969 L 12.324219 20.015625 L 12.367188 20.117188 L 12.398438 20.222656 L 12.394531 20.320312 L 12.324219 20.398438 L 11.125 20.8125 L 11.042969 20.875 L 11.003906 20.945312 L 11.011719 21.027344 L 11.074219 21.105469 L 11.339844 21.207031 L 11.894531 21.390625 L 12.160156 21.492188 L 12.175781 21.5 L 12.179688 21.523438 L 12.195312 21.53125 L 12.285156 21.5625 L 12.363281 21.59375 L 12.410156 21.652344 L 12.402344 21.765625 L 12.3125 21.984375 L 12.183594 22.21875 L 12.050781 22.457031 L 11.933594 22.6875 L 11.859375 22.898438 L 11.847656 23.015625 L 11.871094 23.101562 L 11.941406 23.144531 L 12.0625 23.144531 L 12.328125 23.019531 L 12.59375 22.878906 L 12.855469 22.742188 L 13.125 22.621094 L 13.238281 22.578125 L 13.316406 22.566406 L 13.382812 22.605469 L 13.441406 22.710938 L 13.53125 22.933594 L 13.765625 23.648438 L 13.859375 23.875 L 13.941406 23.953125 L 14.027344 23.96875 L 14.105469 23.929688 L 14.175781 23.835938 L 14.269531 23.617188 L 14.347656 23.378906 L 14.421875 23.128906 L 14.496094 22.886719 L 14.585938 22.667969 L 14.667969 22.582031 L 14.769531 22.574219 L 14.878906 22.613281 L 15.242188 22.78125 L 15.484375 22.910156 L 15.730469 23.039062 L 15.980469 23.152344 L 16.078125 23.140625 L 16.144531 23.082031 L 16.175781 22.996094 L 16.164062 22.898438 L 15.621094 21.789062 L 15.632812 21.644531 L 15.714844 21.554688 L 15.8125 21.507812 L 15.867188 21.492188 L 16.136719 21.390625 L 16.414062 21.296875 L 16.691406 21.207031 L 16.960938 21.097656 L 17.003906 20.996094 L 17 20.933594 L 16.988281 20.886719 L 16.871094 20.8125 L 16.621094 20.71875 L 15.988281 20.503906 L 15.738281 20.414062 L 15.628906 20.351562 L 15.613281 20.277344 L 15.625 20.195312 L 15.652344 20.113281 L 15.679688 20.039062 L 15.792969 19.792969 L 15.9375 19.535156 L 16.070312 19.277344 L 16.167969 19.039062 L 16.171875 18.921875 L 16.125 18.851562 L 16.035156 18.824219 L 15.917969 18.839844 L 15.699219 18.929688 L 15.472656 19.039062 L 15.242188 19.160156 L 15.011719 19.277344 L 14.789062 19.375 L 14.679688 19.378906 L 14.613281 19.324219 L 14.574219 19.234375 L 14.535156 19.136719 L 14.445312 18.875 L 14.359375 18.589844 L 14.265625 18.308594 L 14.160156 18.074219 L 14.136719 18.042969 L 14.113281 18.019531 Z M 14.058594 17.972656 " fill-opacity="1" fill-rule="nonzero"/></g></svg>