<svg xmlns="http://www.w3.org/2000/svg" xmlns:xlink="http://www.w3.org/1999/xlink" width="120" zoomAndPan="magnify" viewBox="0 0 90 97.92" height="120" preserveAspectRatio="xMidYMid meet" version="1.0"><path fill="#9a5230" d="M 3.957031 59.90625 C 9.113281 74.691406 22.734375 84.8125 38.351562 85.90625 C 57.160156 87.222656 73.933594 78.804688 80.855469 65.261719 C 89.941406 47.484375 78.621094 27.601562 77.695312 26.035156 C 76.894531 24.675781 66.070312 6.984375 45.085938 4.300781 C 41.226562 3.808594 31.332031 2.695312 21.363281 8.289062 C 12.09375 13.488281 5.359375 22.945312 3.070312 35.167969 C 2.378906 38.859375 0.0585938 48.230469 3.78125 59.378906 C 3.839844 59.554688 3.898438 59.730469 3.957031 59.90625 Z M 3.957031 59.90625 " fill-opacity="1" fill-rule="nonzero"/><path fill="#ffffff" d="M 27.089844 53.992188 C 27.105469 56.875 27.078125 59.65625 27.339844 62.453125 C 27.75 67.066406 29.445312 69.65625 34.105469 68.347656 C 37.09375 67.507812 40.082031 65.808594 43.023438 64.117188 C 46.0625 62.332031 48.902344 60.511719 51.824219 58.570312 C 53.964844 57.144531 56.152344 55.652344 58.175781 54.109375 C 60.4375 52.378906 63.886719 50.28125 64.828125 48.3125 C 65.972656 46.117188 65.152344 43.933594 63.746094 42.066406 C 61.9375 39.652344 58.578125 37.511719 56.21875 35.625 C 52.542969 32.722656 48.570312 30.152344 44.578125 27.546875 C 41.101562 25.347656 37.820312 23.097656 34.382812 21.789062 C 33.757812 21.5625 33.152344 21.402344 32.527344 21.332031 C 29.957031 20.980469 28.550781 23.128906 28.046875 25.914062 C 27.496094 28.675781 27.371094 31.417969 27.242188 34.535156 C 27.035156 41.058594 27.109375 47.527344 27.089844 53.96875 Z M 27.089844 53.992188 " fill-opacity="1" fill-rule="nonzero"/></svg>