<svg xmlns="http://www.w3.org/2000/svg" xmlns:xlink="http://www.w3.org/1999/xlink" width="120" zoomAndPan="magnify" viewBox="0 0 90 97.92" height="120" preserveAspectRatio="xMidYMid meet" version="1.0"><defs><clipPath id="1f273c9660"><path d="M 2.195312 2.160156 L 87.625 2.160156 L 87.625 87.589844 L 2.195312 87.589844 Z M 2.195312 2.160156 " clip-rule="nonzero"/></clipPath></defs><g clip-path="url(#1f273c9660)"><path fill="#9a5230" d="M 87.816406 44.96875 C 87.816406 46.371094 87.75 47.769531 87.613281 49.167969 C 87.472656 50.5625 87.269531 51.945312 86.996094 53.320312 C 86.722656 54.699219 86.382812 56.054688 85.972656 57.398438 C 85.566406 58.738281 85.09375 60.058594 84.558594 61.351562 C 84.023438 62.648438 83.421875 63.914062 82.761719 65.152344 C 82.101562 66.386719 81.382812 67.589844 80.601562 68.753906 C 79.824219 69.921875 78.988281 71.046875 78.101562 72.128906 C 77.210938 73.210938 76.269531 74.25 75.277344 75.242188 C 74.289062 76.234375 73.25 77.171875 72.164062 78.0625 C 71.082031 78.953125 69.957031 79.785156 68.792969 80.566406 C 67.625 81.34375 66.425781 82.066406 65.1875 82.726562 C 63.953125 83.386719 62.683594 83.984375 61.390625 84.523438 C 60.09375 85.058594 58.777344 85.53125 57.433594 85.9375 C 56.09375 86.34375 54.734375 86.683594 53.359375 86.957031 C 51.984375 87.230469 50.597656 87.4375 49.203125 87.574219 C 47.808594 87.710938 46.410156 87.78125 45.007812 87.78125 C 43.605469 87.78125 42.207031 87.710938 40.8125 87.574219 C 39.414062 87.4375 38.03125 87.230469 36.65625 86.957031 C 35.28125 86.683594 33.921875 86.34375 32.578125 85.9375 C 31.238281 85.53125 29.917969 85.058594 28.625 84.523438 C 27.328125 83.984375 26.0625 83.386719 24.828125 82.726562 C 23.589844 82.066406 22.386719 81.34375 21.222656 80.566406 C 20.058594 79.785156 18.933594 78.953125 17.847656 78.0625 C 16.765625 77.171875 15.726562 76.234375 14.734375 75.242188 C 13.742188 74.25 12.804688 73.210938 11.914062 72.128906 C 11.023438 71.046875 10.191406 69.921875 9.410156 68.753906 C 8.632812 67.589844 7.914062 66.386719 7.25 65.152344 C 6.589844 63.914062 5.992188 62.648438 5.457031 61.351562 C 4.917969 60.058594 4.445312 58.738281 4.039062 57.398438 C 3.632812 56.054688 3.292969 54.699219 3.019531 53.320312 C 2.746094 51.945312 2.539062 50.5625 2.402344 49.167969 C 2.265625 47.769531 2.195312 46.371094 2.195312 44.96875 C 2.195312 43.566406 2.265625 42.167969 2.402344 40.773438 C 2.539062 39.378906 2.746094 37.992188 3.019531 36.617188 C 3.292969 35.242188 3.632812 33.882812 4.039062 32.542969 C 4.445312 31.203125 4.917969 29.882812 5.457031 28.585938 C 5.992188 27.292969 6.589844 26.027344 7.25 24.789062 C 7.914062 23.554688 8.632812 22.351562 9.410156 21.1875 C 10.191406 20.019531 11.023438 18.894531 11.914062 17.8125 C 12.804688 16.726562 13.742188 15.691406 14.734375 14.699219 C 15.726562 13.707031 16.765625 12.765625 17.847656 11.878906 C 18.933594 10.988281 20.058594 10.152344 21.222656 9.375 C 22.386719 8.59375 23.589844 7.875 24.828125 7.214844 C 26.0625 6.554688 27.328125 5.953125 28.625 5.417969 C 29.917969 4.882812 31.238281 4.410156 32.578125 4.003906 C 33.921875 3.597656 35.28125 3.257812 36.65625 2.980469 C 38.03125 2.707031 39.414062 2.503906 40.8125 2.367188 C 42.207031 2.226562 43.605469 2.160156 45.007812 2.160156 C 46.410156 2.160156 47.808594 2.226562 49.203125 2.367188 C 50.597656 2.503906 51.984375 2.707031 53.359375 2.980469 C 54.734375 3.257812 56.09375 3.597656 57.433594 4.003906 C 58.777344 4.410156 60.09375 4.882812 61.390625 5.417969 C 62.683594 5.953125 63.953125 6.554688 65.1875 7.214844 C 66.425781 7.875 67.625 8.59375 68.792969 9.375 C 69.957031 10.152344 71.082031 10.988281 72.164062 11.878906 C 73.25 12.765625 74.289062 13.707031 75.277344 14.699219 C 76.269531 15.691406 77.210938 16.726562 78.101562 17.8125 C 78.988281 18.894531 79.824219 20.019531 80.601562 21.1875 C 81.382812 22.351562 82.101562 23.554688 82.761719 24.789062 C 83.421875 26.027344 84.023438 27.292969 84.558594 28.585938 C 85.09375 29.882812 85.566406 31.203125 85.972656 32.542969 C 86.382812 33.882812 86.722656 35.242188 86.996094 36.617188 C 87.269531 37.992188 87.472656 39.378906 87.613281 40.773438 C 87.75 42.167969 87.816406 43.566406 87.816406 44.96875 Z M 87.816406 44.96875 " fill-opacity="1" fill-rule="nonzero"/></g><path fill="#25f4ee" d="M 39.324219 38.851562 L 39.324219 36.527344 C 38.542969 36.421875 37.753906 36.355469 36.949219 36.355469 C 27.226562 36.355469 19.320312 44.261719 19.320312 53.984375 C 19.320312 59.949219 22.300781 65.222656 26.847656 68.417969 C 23.914062 65.265625 22.171875 61.046875 22.171875 56.414062 C 22.171875 46.832031 29.796875 39.070312 39.324219 38.851562 Z M 39.324219 38.851562 " fill-opacity="1" fill-rule="nonzero"/><path fill="#25f4ee" d="M 39.738281 64.511719 C 44.074219 64.511719 47.664062 61.011719 47.824219 56.714844 L 47.863281 18.386719 L 54.8125 18.386719 C 54.8125 18.386719 54.800781 18.335938 54.800781 18.335938 C 54.65625 17.546875 54.574219 16.734375 54.574219 15.90625 L 45 15.90625 L 44.984375 54.289062 C 44.824219 58.585938 41.285156 62.035156 36.949219 62.035156 C 35.597656 62.035156 34.332031 61.695312 33.214844 61.109375 C 34.679688 63.136719 37.054688 64.515625 39.742188 64.515625 Z M 39.738281 64.511719 " fill-opacity="1" fill-rule="nonzero"/><path fill="#25f4ee" d="M 67.902344 31.472656 L 67.902344 29.222656 C 65.226562 29.222656 62.738281 28.425781 60.644531 27.0625 C 62.503906 29.199219 65.03125 30.855469 67.902344 31.46875 Z M 67.902344 31.472656 " fill-opacity="1" fill-rule="nonzero"/><path fill="#fe2c55" d="M 60.644531 27.066406 C 58.609375 24.722656 57.367188 21.671875 57.367188 18.332031 L 54.761719 18.332031 C 55.4375 21.980469 57.644531 25.113281 60.644531 27.066406 Z M 60.644531 27.066406 " fill-opacity="1" fill-rule="nonzero"/><path fill="#fe2c55" d="M 36.949219 45.855469 C 32.507812 45.855469 28.84375 49.539062 28.84375 53.980469 C 28.84375 57.070312 30.648438 59.757812 33.210938 61.105469 C 32.257812 59.785156 31.6875 58.164062 31.6875 56.414062 C 31.6875 51.972656 35.296875 48.359375 39.738281 48.359375 C 40.566406 48.359375 41.363281 48.496094 42.113281 48.734375 L 42.113281 38.957031 C 41.335938 38.851562 40.542969 38.785156 39.738281 38.785156 C 39.597656 38.785156 39.460938 38.792969 39.324219 38.796875 L 39.285156 38.796875 C 39.285156 38.796875 39.257812 46.199219 39.257812 46.199219 C 38.507812 45.960938 37.777344 45.859375 36.949219 45.859375 Z M 36.949219 45.855469 " fill-opacity="1" fill-rule="nonzero"/><path fill="#fe2c55" d="M 67.902344 31.359375 L 67.855469 31.351562 L 67.855469 38.742188 C 62.886719 38.742188 58.273438 37.109375 54.519531 34.414062 L 54.519531 53.980469 C 54.519531 63.699219 46.667969 71.558594 36.949219 71.558594 C 33.191406 71.558594 29.710938 70.421875 26.84375 68.410156 C 30.0625 71.863281 34.652344 74.035156 39.738281 74.035156 C 49.457031 74.035156 57.363281 66.128906 57.363281 56.410156 L 57.363281 36.945312 C 61.121094 39.640625 65.722656 41.230469 70.6875 41.230469 L 70.6875 31.652344 C 69.730469 31.652344 68.800781 31.550781 67.898438 31.359375 Z M 67.902344 31.359375 " fill-opacity="1" fill-rule="nonzero"/><path fill="#ffffff" d="M 54.574219 53.980469 L 54.574219 34.515625 C 58.332031 37.210938 62.933594 38.800781 67.898438 38.800781 L 67.898438 31.359375 C 65.027344 30.742188 62.503906 29.203125 60.640625 27.066406 C 57.644531 25.109375 55.476562 21.980469 54.800781 18.332031 L 47.785156 18.332031 L 47.769531 56.710938 C 47.609375 61.011719 44.070312 64.460938 39.734375 64.460938 C 37.046875 64.460938 34.671875 63.132812 33.207031 61.101562 C 30.644531 59.753906 28.894531 57.070312 28.894531 53.976562 C 28.894531 49.535156 32.503906 45.925781 36.945312 45.925781 C 37.773438 45.925781 38.566406 46.0625 39.320312 46.296875 L 39.320312 38.789062 C 29.789062 39.011719 22.109375 46.824219 22.109375 56.410156 C 22.109375 61.042969 23.910156 65.261719 26.839844 68.414062 C 29.703125 70.425781 33.183594 71.605469 36.945312 71.605469 C 46.664062 71.605469 54.570312 63.699219 54.570312 53.980469 Z M 54.574219 53.980469 " fill-opacity="1" fill-rule="nonzero"/></svg>