<svg xmlns="http://www.w3.org/2000/svg" xmlns:xlink="http://www.w3.org/1999/xlink" width="120" zoomAndPan="magnify" viewBox="0 0 90 97.92" height="120" preserveAspectRatio="xMidYMid meet" version="1.0"><defs><clipPath id="23ecc35098"><path d="M 2.195312 2.160156 L 87.625 2.160156 L 87.625 87.589844 L 2.195312 87.589844 Z M 2.195312 2.160156 " clip-rule="nonzero"/></clipPath></defs><path fill="#9a5230" d="M 45 35.476562 C 39.773438 35.476562 35.511719 39.738281 35.511719 44.960938 C 35.511719 50.1875 39.773438 54.449219 45 54.449219 C 50.226562 54.449219 54.488281 50.1875 54.488281 44.960938 C 54.488281 39.738281 50.226562 35.476562 45 35.476562 Z M 45 35.476562 " fill-opacity="1" fill-rule="nonzero"/><path fill="#9a5230" d="M 57.746094 21.691406 L 32.25 21.691406 C 26.46875 21.691406 21.726562 26.394531 21.726562 32.214844 L 21.726562 57.710938 C 21.726562 63.492188 26.433594 68.234375 32.25 68.234375 L 57.746094 68.234375 C 63.527344 68.234375 68.273438 63.527344 68.273438 57.710938 L 68.273438 32.214844 C 68.234375 26.394531 63.527344 21.691406 57.746094 21.691406 Z M 45 59.230469 C 37.105469 59.230469 30.695312 52.820312 30.695312 44.925781 C 30.695312 37.03125 37.105469 30.621094 45 30.621094 C 52.894531 30.621094 59.304688 37.03125 59.304688 44.925781 C 59.265625 52.820312 52.855469 59.230469 45 59.230469 Z M 60.304688 33.03125 C 58.414062 33.03125 56.859375 31.472656 56.859375 29.582031 C 56.859375 27.691406 58.414062 26.136719 60.304688 26.136719 C 62.195312 26.136719 63.75 27.691406 63.75 29.582031 C 63.75 31.511719 62.230469 33.03125 60.304688 33.03125 Z M 60.304688 33.03125 " fill-opacity="1" fill-rule="nonzero"/><g clip-path="url(#23ecc35098)"><path fill="#9a5230" d="M 45 2.160156 C 21.355469 2.160156 2.195312 21.320312 2.195312 44.960938 C 2.195312 68.605469 21.355469 87.765625 45 87.765625 C 68.644531 87.765625 87.800781 68.605469 87.800781 44.960938 C 87.765625 21.320312 68.605469 2.160156 45 2.160156 Z M 73.054688 57.710938 C 73.054688 66.160156 66.160156 73.054688 57.710938 73.054688 L 32.25 73.054688 C 23.800781 73.054688 16.910156 66.160156 16.910156 57.710938 L 16.910156 32.214844 C 16.910156 23.765625 23.800781 16.871094 32.25 16.871094 L 57.746094 16.871094 C 66.195312 16.871094 73.089844 23.765625 73.089844 32.214844 L 73.089844 57.710938 Z M 73.054688 57.710938 " fill-opacity="1" fill-rule="nonzero"/></g></svg>