<svg xmlns="http://www.w3.org/2000/svg" xmlns:xlink="http://www.w3.org/1999/xlink" width="120" zoomAndPan="magnify" viewBox="0 0 90 97.92" height="120" preserveAspectRatio="xMidYMid meet" version="1.0"><defs><clipPath id="9b892d40fe"><path d="M 0.0351562 27 L 88 27 L 88 62 L 0.0351562 62 Z M 0.0351562 27 " clip-rule="nonzero"/></clipPath><clipPath id="1c8292b4a2"><path d="M 53.945312 0.00390625 L 89.75 45.253906 L 33.328125 89.890625 L -2.472656 44.640625 Z M 53.945312 0.00390625 " clip-rule="nonzero"/></clipPath><clipPath id="eca7b9144f"><path d="M 53.945312 0.00390625 L 89.75 45.253906 L 33.328125 89.890625 L -2.472656 44.640625 Z M 53.945312 0.00390625 " clip-rule="nonzero"/></clipPath><clipPath id="db26e45f5c"><path d="M 40 48 L 62 48 L 62 70 L 40 70 Z M 40 48 " clip-rule="nonzero"/></clipPath><clipPath id="99fd85970b"><path d="M 53.945312 0.00390625 L 89.75 45.253906 L 33.328125 89.890625 L -2.472656 44.640625 Z M 53.945312 0.00390625 " clip-rule="nonzero"/></clipPath><clipPath id="9da858bbed"><path d="M 53.945312 0.00390625 L 89.75 45.253906 L 33.328125 89.890625 L -2.472656 44.640625 Z M 53.945312 0.00390625 " clip-rule="nonzero"/></clipPath><clipPath id="5024249f8d"><path d="M 43 7 L 68 7 L 68 30 L 43 30 Z M 43 7 " clip-rule="nonzero"/></clipPath><clipPath id="4c4772a51f"><path d="M 53.945312 0.00390625 L 89.75 45.253906 L 33.328125 89.890625 L -2.472656 44.640625 Z M 53.945312 0.00390625 " clip-rule="nonzero"/></clipPath><clipPath id="45dcae9ab0"><path d="M 53.945312 0.00390625 L 89.75 45.253906 L 33.328125 89.890625 L -2.472656 44.640625 Z M 53.945312 0.00390625 " clip-rule="nonzero"/></clipPath></defs><g clip-path="url(#9b892d40fe)"><g clip-path="url(#1c8292b4a2)"><g clip-path="url(#eca7b9144f)"><path fill="#c2680a" d="M 87.253906 47.1875 C 87.3125 47.101562 87.359375 47 87.398438 46.886719 C 87.574219 46.367188 87.566406 45.847656 87.367188 45.332031 C 86.484375 43.019531 85.363281 40.828125 84.082031 38.703125 C 82.890625 36.71875 81.519531 34.855469 79.992188 33.136719 C 79.027344 32.046875 78.003906 31.023438 76.957031 30.042969 C 76.605469 29.707031 75.902344 29.589844 75.449219 29.65625 C 74.933594 29.726562 74.367188 30.046875 74.070312 30.472656 C 73.785156 30.90625 73.605469 31.453125 73.683594 31.976562 C 73.734375 32.148438 73.785156 32.320312 73.824219 32.5 C 73.972656 32.847656 74.195312 33.132812 74.5 33.355469 C 74.605469 33.460938 74.734375 33.570312 74.839844 33.675781 C 76.675781 35.464844 78.316406 37.433594 79.75 39.5625 C 80.128906 40.125 80.5 40.699219 80.851562 41.304688 C 81.171875 41.871094 81.503906 42.449219 81.800781 43.035156 C 77.539062 40.574219 72.964844 38.761719 68.160156 37.613281 C 63.011719 36.378906 57.648438 36.011719 52.382812 36.492188 C 50.574219 36.65625 48.757812 36.914062 46.972656 37.292969 C 46.929688 36.949219 46.851562 36.609375 46.773438 36.273438 C 46.402344 34.816406 45.816406 33.492188 44.898438 32.300781 C 44.089844 31.253906 43.058594 30.347656 41.898438 29.683594 C 39.484375 28.308594 36.75 27.671875 33.96875 27.617188 C 31.152344 27.570312 28.410156 27.992188 25.691406 28.710938 C 22.855469 29.460938 20.113281 30.46875 17.492188 31.789062 C 12.21875 34.441406 7.523438 38.117188 3.71875 42.621094 C 2.84375 43.648438 2.023438 44.742188 1.269531 45.863281 C 0.671875 46.757812 0.761719 48.121094 1.722656 48.75 C 2.625 49.359375 3.953125 49.257812 4.609375 48.300781 C 5.828125 46.511719 7.199219 44.816406 8.691406 43.238281 C 11.117188 40.769531 13.835938 38.617188 16.785156 36.832031 C 19.726562 35.117188 22.867188 33.765625 26.140625 32.820312 C 28.449219 32.195312 30.816406 31.753906 33.199219 31.703125 C 34.535156 31.71875 35.875 31.839844 37.167969 32.140625 C 38 32.367188 38.789062 32.671875 39.554688 33.054688 C 40.070312 33.363281 40.558594 33.710938 41.007812 34.117188 C 41.394531 34.527344 41.753906 34.957031 42.0625 35.453125 C 42.320312 35.941406 42.542969 36.460938 42.714844 36.996094 C 42.820312 37.421875 42.882812 37.875 42.929688 38.304688 C 40.492188 39.03125 38.105469 39.953125 35.8125 41.050781 C 33.121094 42.335938 30.523438 43.867188 28.085938 45.605469 C 25.75 47.285156 23.460938 49.15625 21.542969 51.308594 C 19.808594 53.246094 18.488281 55.996094 19.492188 58.59375 C 20.027344 59.960938 21.269531 61.105469 22.667969 61.515625 C 24.03125 61.910156 25.445312 61.910156 26.820312 61.601562 C 28.246094 61.273438 29.578125 60.722656 30.886719 60.085938 C 32.359375 59.367188 33.785156 58.53125 35.128906 57.59375 C 37.722656 55.816406 40.050781 53.617188 42.027344 51.167969 C 43.746094 49.027344 45.238281 46.628906 46.128906 44.027344 C 46.398438 43.222656 46.636719 42.40625 46.796875 41.542969 C 49.898438 40.832031 53.074219 40.449219 56.265625 40.386719 C 60.148438 40.371094 64.023438 40.824219 67.796875 41.734375 C 71.566406 42.691406 75.222656 44.113281 78.652344 45.949219 C 78.761719 46.007812 78.875 46.070312 78.984375 46.128906 C 76.945312 46.855469 74.9375 47.667969 72.960938 48.578125 C 71.890625 49.066406 70.835938 49.566406 69.785156 50.101562 C 69.285156 50.347656 68.878906 50.710938 68.675781 51.253906 C 68.492188 51.714844 68.476562 52.359375 68.703125 52.808594 C 68.941406 53.296875 69.324219 53.75 69.855469 53.917969 C 70.34375 54.082031 70.9375 54.140625 71.414062 53.890625 C 75.074219 52.023438 78.894531 50.433594 82.816406 49.164062 C 83.941406 48.800781 85.0625 48.460938 86.179688 48.144531 C 86.625 48.066406 87.054688 47.597656 87.253906 47.1875 Z M 31.089844 55.335938 C 29.628906 56.179688 28.074219 56.984375 26.441406 57.476562 C 25.910156 57.601562 25.359375 57.703125 24.804688 57.71875 C 24.558594 57.703125 24.3125 57.6875 24.070312 57.648438 C 23.957031 57.609375 23.835938 57.558594 23.710938 57.511719 C 23.644531 57.457031 23.578125 57.425781 23.515625 57.371094 C 23.464844 57.304688 23.421875 57.253906 23.371094 57.1875 C 23.34375 57.125 23.304688 57.050781 23.289062 56.980469 C 23.277344 56.882812 23.261719 56.8125 23.25 56.714844 C 23.265625 56.578125 23.28125 56.4375 23.300781 56.296875 C 23.394531 55.96875 23.527344 55.65625 23.691406 55.355469 C 24.070312 54.71875 24.527344 54.125 25.050781 53.585938 C 27.648438 50.960938 30.640625 48.699219 33.8125 46.800781 C 36.476562 45.242188 39.285156 43.945312 42.179688 42.921875 C 41.886719 43.71875 41.539062 44.480469 41.144531 45.234375 C 40.046875 47.175781 38.667969 48.941406 37.136719 50.574219 C 35.324219 52.386719 33.292969 53.996094 31.089844 55.335938 Z M 31.089844 55.335938 " fill-opacity="1" fill-rule="nonzero"/></g></g></g><g clip-path="url(#db26e45f5c)"><g clip-path="url(#99fd85970b)"><g clip-path="url(#9da858bbed)"><path fill="#c2680a" d="M 53.90625 69.402344 C 53.414062 69.5 52.800781 69.308594 52.398438 69.015625 C 51.976562 68.695312 51.640625 68.164062 51.585938 67.640625 C 51.429688 66.433594 51.289062 65.242188 51.132812 64.035156 C 51.078125 63.617188 51.03125 63.210938 50.972656 62.792969 C 48.355469 62.945312 45.738281 63.125 43.121094 63.277344 C 42.5625 63.316406 42.082031 63.214844 41.613281 62.890625 C 41.15625 62.578125 40.886719 62.054688 40.796875 61.511719 C 40.703125 61.019531 40.890625 60.40625 41.1875 60.007812 C 41.480469 59.605469 42.054688 59.214844 42.5625 59.191406 C 43.769531 59.121094 44.96875 59.035156 46.175781 58.964844 C 47.621094 58.875 49.042969 58.78125 50.488281 58.691406 C 50.1875 56.210938 49.867188 53.726562 49.566406 51.246094 C 49.492188 50.699219 49.644531 50.199219 49.957031 49.742188 C 50.265625 49.285156 50.792969 49.015625 51.332031 48.925781 C 51.824219 48.832031 52.4375 49.019531 52.839844 49.3125 C 53.261719 49.632812 53.597656 50.164062 53.652344 50.691406 C 53.808594 51.894531 53.949219 53.085938 54.105469 54.292969 C 54.273438 55.675781 54.449219 57.074219 54.617188 58.457031 C 56.050781 58.375 57.484375 58.273438 58.917969 58.195312 C 59.472656 58.152344 59.957031 58.257812 60.425781 58.582031 C 60.882812 58.894531 61.148438 59.417969 61.238281 59.957031 C 61.335938 60.449219 61.144531 61.0625 60.851562 61.464844 C 60.558594 61.867188 59.984375 62.257812 59.476562 62.28125 C 58.269531 62.351562 57.070312 62.433594 55.863281 62.503906 C 55.613281 62.511719 55.363281 62.542969 55.117188 62.546875 C 55.304688 64.0625 55.496094 65.554688 55.683594 67.070312 C 55.761719 67.621094 55.609375 68.121094 55.296875 68.578125 C 54.972656 69.042969 54.4375 69.300781 53.90625 69.402344 Z M 53.90625 69.402344 " fill-opacity="1" fill-rule="nonzero"/></g></g></g><g clip-path="url(#5024249f8d)"><g clip-path="url(#4c4772a51f)"><g clip-path="url(#45dcae9ab0)"><path fill="#c2680a" d="M 49.054688 26.507812 C 48.636719 26.859375 48.058594 26.980469 47.535156 26.929688 C 47.023438 26.894531 46.460938 26.558594 46.152344 26.167969 C 45.796875 25.714844 45.714844 25.210938 45.730469 24.652344 C 45.738281 24.203125 45.742188 23.757812 45.746094 23.3125 C 45.730469 22.441406 45.691406 21.566406 45.640625 20.699219 C 45.414062 17.488281 44.882812 14.285156 44.035156 11.167969 C 43.945312 10.839844 43.84375 10.496094 43.742188 10.15625 C 43.605469 9.824219 43.550781 9.464844 43.59375 9.117188 C 43.625 8.941406 43.679688 8.773438 43.710938 8.601562 C 43.890625 8.082031 44.335938 7.683594 44.820312 7.449219 C 45.28125 7.230469 45.925781 7.246094 46.375 7.417969 C 46.828125 7.589844 47.382812 8.050781 47.527344 8.527344 C 47.910156 9.785156 48.253906 11.070312 48.554688 12.351562 C 49.523438 16.53125 49.917969 20.8125 49.816406 25.101562 C 49.808594 25.679688 49.445312 26.175781 49.054688 26.507812 Z M 60.746094 14.585938 C 60.921875 14.085938 60.9375 13.523438 60.714844 13.027344 C 60.511719 12.558594 60.0625 12.070312 59.5625 11.917969 C 59.066406 11.742188 58.492188 11.710938 58.007812 11.949219 C 57.519531 12.1875 57.074219 12.582031 56.894531 13.101562 C 55.902344 15.890625 54.925781 18.703125 53.941406 21.503906 C 53.765625 22 53.746094 22.5625 53.972656 23.058594 C 54.175781 23.53125 54.625 24.019531 55.125 24.171875 C 55.621094 24.34375 56.191406 24.378906 56.679688 24.140625 C 57.164062 23.902344 57.609375 23.507812 57.789062 22.988281 C 58.761719 20.195312 59.746094 17.394531 60.746094 14.585938 Z M 63.058594 28.714844 C 64.296875 27.273438 65.535156 25.832031 66.761719 24.375 C 67.078125 24 67.214844 23.34375 67.152344 22.867188 C 67.082031 22.355469 66.757812 21.789062 66.335938 21.492188 C 65.898438 21.207031 65.355469 21.023438 64.828125 21.105469 C 64.261719 21.214844 63.832031 21.492188 63.453125 21.917969 C 62.214844 23.363281 60.976562 24.804688 59.746094 26.261719 C 59.433594 26.636719 59.296875 27.289062 59.359375 27.769531 C 59.429688 28.28125 59.75 28.847656 60.175781 29.144531 C 60.613281 29.429688 61.15625 29.613281 61.683594 29.53125 C 62.257812 29.433594 62.691406 29.15625 63.058594 28.714844 Z M 63.058594 28.714844 " fill-opacity="1" fill-rule="nonzero"/></g></g></g></svg>